# xmcd
#
# Track frame offsets:
#	150
#	12237
#	31249
#	43547
#	60897
#	73434
#	89458
#	105703
#	126611
#	140106
#	150987
#	167447
#	179199
#
# Disc length: 2612 seconds
#
# Revision: 1
# Processed by: cddbd v1.4PL0 Copyright (c) Steve Scherf et al.
# Submitted via: EasyCDDAExtractor 5.1.0
#
DISCID=b50a320d
DTITLE=Ottawa County Bluegrass Band - Beside Still Waters
DYEAR=2003
DGENRE=Bluegrass
TTITLE0=Travelin The Highway Home
TTITLE1=A Heart That Will Never Break Again
TTITLE2=When The Angels Carry Me Home
TTITLE3=Dreaming Of A Little Cabin
TTITLE4=He Took Your Place
TTITLE5=Sweet Beulah Land
TTITLE6=Cry From The Cross
TTITLE7=White Oak On The Hill
TTITLE8=Garden Of Life
TTITLE9=Will You Be Ready To Go Home
TTITLE10=Drifting Too Far From Shore
TTITLE11=I'll Fly Away
TTITLE12=God Sent An Angel
EXTD=
EXTT0=
EXTT1=
EXTT2=
EXTT3=
EXTT4=
EXTT5=
EXTT6=
EXTT7=
EXTT8=
EXTT9=
EXTT10=
EXTT11=
EXTT12=
PLAYORDER=
